<svg width="17" height="16" viewBox="0 0 17 16" fill="none" xmlns="http://www.w3.org/2000/svg">
<g clip-path="url(#clip0_738_17429)">
<path fill-rule="evenodd" clip-rule="evenodd" d="M3.6 11.2C3.64657 11.1379 3.70697 11.0875 3.77639 11.0528C3.84582 11.0181 3.92238 11 4 11H6.5C6.63261 11 6.75979 11.0527 6.85355 11.1464C6.94732 11.2402 7 11.3674 7 11.5C7 11.6326 6.94732 11.7598 6.85355 11.8536C6.75979 11.9473 6.63261 12 6.5 12H4.25L2 15H15L12.75 12H10.5C10.3674 12 10.2402 11.9473 10.1464 11.8536C10.0527 11.7598 10 11.6326 10 11.5C10 11.3674 10.0527 11.2402 10.1464 11.1464C10.2402 11.0527 10.3674 11 10.5 11H13C13.0776 11 13.1542 11.0181 13.2236 11.0528C13.293 11.0875 13.3534 11.1379 13.4 11.2L16.4 15.2C16.4557 15.2743 16.4896 15.3626 16.498 15.4551C16.5063 15.5476 16.4887 15.6406 16.4472 15.7236C16.4057 15.8067 16.3419 15.8765 16.2629 15.9253C16.1839 15.9741 16.0929 16 16 16H1C0.907144 16 0.816123 15.9741 0.737135 15.9253C0.658147 15.8765 0.594313 15.8067 0.552787 15.7236C0.51126 15.6406 0.493682 15.5476 0.502021 15.4551C0.51036 15.3626 0.544287 15.2743 0.6 15.2L3.6 11.2Z" fill="#708E8C"/>
<path fill-rule="evenodd" clip-rule="evenodd" d="M8.5 0.999995C8.10604 0.999995 7.71593 1.07759 7.35195 1.22836C6.98797 1.37912 6.65726 1.6001 6.37868 1.87868C6.1001 2.15725 5.87913 2.48797 5.72836 2.85194C5.5776 3.21592 5.5 3.60603 5.5 4C5.5 4.39396 5.5776 4.78407 5.72836 5.14805C5.87913 5.51202 6.1001 5.84274 6.37868 6.12132C6.65726 6.39989 6.98797 6.62087 7.35195 6.77163C7.71593 6.9224 8.10604 7 8.5 7C9.29565 7 10.0587 6.68392 10.6213 6.12132C11.1839 5.55871 11.5 4.79564 11.5 4C11.5 3.20435 11.1839 2.44128 10.6213 1.87868C10.0587 1.31607 9.29565 0.999995 8.5 0.999995ZM4.5 4C4.50007 3.23022 4.72226 2.47682 5.13989 1.83019C5.55753 1.18356 6.15288 0.671167 6.8545 0.354502C7.55613 0.0378371 8.33422 -0.0696522 9.09542 0.0449322C9.85662 0.159517 10.5686 0.491307 11.1459 1.00049C11.7232 1.50968 12.1413 2.17463 12.3501 2.91555C12.5589 3.65647 12.5494 4.4419 12.3228 5.17758C12.0963 5.91326 11.6623 6.56795 11.0729 7.06309C10.4835 7.55822 9.76374 7.87277 9 7.969V13.5C9 13.6326 8.94732 13.7598 8.85355 13.8535C8.75979 13.9473 8.63261 14 8.5 14C8.36739 14 8.24022 13.9473 8.14645 13.8535C8.05268 13.7598 8 13.6326 8 13.5V7.97C7.03297 7.84816 6.14369 7.37743 5.49922 6.64623C4.85474 5.91503 4.49942 4.97367 4.5 3.999V4Z" fill="#708E8C"/>
</g>
<defs>
<clipPath id="clip0_738_17429">
<rect width="16" height="16" fill="white" transform="translate(0.5)"/>
</clipPath>
</defs>
</svg>
