<svg width="14" height="12" viewBox="0 0 14 12" fill="none" xmlns="http://www.w3.org/2000/svg">
<path d="M12.9999 0C13.1767 0 13.3463 0.0702379 13.4713 0.195262C13.5963 0.320286 13.6666 0.489856 13.6666 0.666667V4.33333C13.2246 4.33333 12.8006 4.50893 12.4881 4.82149C12.1755 5.13405 11.9999 5.55797 11.9999 6C11.9999 6.44203 12.1755 6.86595 12.4881 7.17851C12.8006 7.49107 13.2246 7.66667 13.6666 7.66667V11.3333C13.6666 11.5101 13.5963 11.6797 13.4713 11.8047C13.3463 11.9298 13.1767 12 12.9999 12H0.999919C0.823108 12 0.653538 11.9298 0.528514 11.8047C0.40349 11.6797 0.333252 11.5101 0.333252 11.3333V7.66667C0.775279 7.66667 1.1992 7.49107 1.51176 7.17851C1.82432 6.86595 1.99992 6.44203 1.99992 6C1.99992 5.55797 1.82432 5.13405 1.51176 4.82149C1.1992 4.50893 0.775279 4.33333 0.333252 4.33333V0.666667C0.333252 0.489856 0.40349 0.320286 0.528514 0.195262C0.653538 0.0702379 0.823108 0 0.999919 0H12.9999ZM12.3333 1.33333H1.66659V3.312L1.77059 3.366C2.2228 3.6127 2.60387 3.97168 2.8771 4.40838C3.15032 4.84508 3.3065 5.34477 3.33059 5.85933L3.33325 6C3.33334 6.53883 3.18826 7.06773 2.91329 7.53111C2.63831 7.99449 2.24358 8.37524 1.77059 8.63333L1.66659 8.688V10.6667H12.3333V8.68733L12.2293 8.634C11.777 8.3873 11.396 8.02832 11.1227 7.59162C10.8495 7.15493 10.6933 6.65523 10.6693 6.14067L10.6666 6C10.6666 4.864 11.2979 3.87533 12.2293 3.36667L12.3333 3.31133V1.33333ZM9.66659 4V8H4.33325V4H9.66659Z" fill="#F8FFFE"/>
</svg>
