<svg width="12" height="14" viewBox="0 0 12 14" fill="none" xmlns="http://www.w3.org/2000/svg">
<path d="M11.3333 0.333496C11.5101 0.333496 11.6797 0.403734 11.8047 0.528758C11.9298 0.653782 12 0.823352 12 1.00016V13.0002C12 13.177 11.9298 13.3465 11.8047 13.4716C11.6797 13.5966 11.5101 13.6668 11.3333 13.6668H0.666667C0.489856 13.6668 0.320286 13.5966 0.195262 13.4716C0.0702379 13.3465 0 13.177 0 13.0002V1.00016C0 0.823352 0.0702379 0.653782 0.195262 0.528758C0.320286 0.403734 0.489856 0.333496 0.666667 0.333496H11.3333ZM10.6667 1.66683H1.33333V12.3335H10.6667V1.66683ZM8.66667 9.66683V11.0002H3.33333V9.66683H8.66667ZM6 3.00016C6.70724 3.00016 7.38552 3.28111 7.88562 3.78121C8.38572 4.28131 8.66667 4.95959 8.66667 5.66683C8.66667 6.37407 8.38572 7.05235 7.88562 7.55245C7.38552 8.05254 6.70724 8.3335 6 8.3335C5.29276 8.3335 4.61448 8.05254 4.11438 7.55245C3.61428 7.05235 3.33333 6.37407 3.33333 5.66683C3.33333 4.95959 3.61428 4.28131 4.11438 3.78121C4.61448 3.28111 5.29276 3.00016 6 3.00016ZM6 4.3335C5.64638 4.3335 5.30724 4.47397 5.05719 4.72402C4.80714 4.97407 4.66667 5.31321 4.66667 5.66683C4.66667 6.02045 4.80714 6.35959 5.05719 6.60964C5.30724 6.85969 5.64638 7.00016 6 7.00016C6.35362 7.00016 6.69276 6.85969 6.94281 6.60964C7.19286 6.35959 7.33333 6.02045 7.33333 5.66683C7.33333 5.31321 7.19286 4.97407 6.94281 4.72402C6.69276 4.47397 6.35362 4.3335 6 4.3335Z" fill="#91A8A7"/>
</svg>
