<svg width="14" height="12" viewBox="0 0 14 12" fill="none" xmlns="http://www.w3.org/2000/svg">
<path d="M13 0C13.1768 0 13.3464 0.0702379 13.4714 0.195262C13.5964 0.320286 13.6666 0.489856 13.6666 0.666667V4.33333C13.2246 4.33333 12.8007 4.50893 12.4881 4.82149C12.1756 5.13405 12 5.55797 12 6C12 6.44203 12.1756 6.86595 12.4881 7.17851C12.8007 7.49107 13.2246 7.66667 13.6666 7.66667V11.3333C13.6666 11.5101 13.5964 11.6797 13.4714 11.8047C13.3464 11.9298 13.1768 12 13 12H0.99998C0.823169 12 0.653599 11.9298 0.528575 11.8047C0.403551 11.6797 0.333313 11.5101 0.333313 11.3333V7.66667C0.77534 7.66667 1.19926 7.49107 1.51182 7.17851C1.82438 6.86595 1.99998 6.44203 1.99998 6C1.99998 5.55797 1.82438 5.13405 1.51182 4.82149C1.19926 4.50893 0.77534 4.33333 0.333313 4.33333V0.666667C0.333313 0.489856 0.403551 0.320286 0.528575 0.195262C0.653599 0.0702379 0.823169 0 0.99998 0H13ZM12.3333 1.33333H1.66665V3.312L1.77065 3.366C2.22286 3.6127 2.60393 3.97168 2.87716 4.40838C3.15038 4.84507 3.30656 5.34477 3.33065 5.85933L3.33331 6C3.3334 6.53883 3.18833 7.06773 2.91335 7.53111C2.63837 7.99449 2.24364 8.37524 1.77065 8.63333L1.66665 8.688V10.6667H12.3333V8.68733L12.2293 8.634C11.7771 8.3873 11.396 8.02832 11.1228 7.59162C10.8496 7.15493 10.6934 6.65523 10.6693 6.14067L10.6666 6C10.6666 4.864 11.298 3.87533 12.2293 3.36667L12.3333 3.31133V1.33333ZM9.66665 4V8H4.33331V4H9.66665Z" fill="#1C2928"/>
</svg>
