<svg width="14" height="14" xmlns="http://www.w3.org/2000/svg">
    <svg viewBox="0 0 14 14">
        <path d="M1.50001 7C1.49986 6.03447 1.75388 5.08592 2.23655 4.2497C2.71921 3.41347 3.41351 2.71904 4.24964 2.23621C5.08577 1.75338 6.03427 1.49917 6.99979 1.49914C7.96532 1.4991 8.91384 1.75323 9.75001 2.236C9.86479 2.30126 10.0007 2.31847 10.1281 2.28387C10.2556 2.24928 10.3641 2.16569 10.4301 2.05134C10.4962 1.937 10.5143 1.80119 10.4805 1.67354C10.4468 1.54589 10.3639 1.43677 10.25 1.37C9.01087 0.654579 7.57029 0.368018 6.15169 0.554757C4.73309 0.741496 3.41575 1.3911 2.40396 2.40282C1.39218 3.41454 0.742488 4.73184 0.555658 6.15043C0.368828 7.56902 0.655297 9.00961 1.37064 10.2488C2.08597 11.488 3.19021 12.4565 4.51208 13.0042C5.83396 13.5518 7.29961 13.648 8.68173 13.2778C10.0638 12.9076 11.2852 12.0918 12.1564 10.9567C13.0275 9.82163 13.4998 8.43083 13.5 7C13.5 6.86739 13.4473 6.74021 13.3536 6.64644C13.2598 6.55268 13.1326 6.5 13 6.5C12.8674 6.5 12.7402 6.55268 12.6465 6.64644C12.5527 6.74021 12.5 6.86739 12.5 7C12.5 8.45869 11.9205 9.85763 10.8891 10.8891C9.85765 11.9205 8.4587 12.5 7.00001 12.5C5.54132 12.5 4.14237 11.9205 3.11092 10.8891C2.07947 9.85763 1.50001 8.45869 1.50001 7Z" fill="#35655F"/>
    </svg>
    <svg viewBox="0 0 12 9" x="2" y="-2">
        <path d="M11.3537 1.35401C11.4001 1.30752 11.437 1.25233 11.4622 1.19159C11.4873 1.13085 11.5003 1.06575 11.5003 1.00001C11.5003 0.934262 11.4873 0.869162 11.4622 0.808423C11.437 0.747683 11.4001 0.692494 11.3537 0.646006C11.3072 0.599518 11.252 0.562642 11.1912 0.537483C11.1305 0.512324 11.0654 0.499374 10.9997 0.499374C10.9339 0.499374 10.8688 0.512324 10.8081 0.537483C10.7473 0.562642 10.6921 0.599518 10.6457 0.646006L3.99966 7.29301L1.35366 4.64601C1.30717 4.59952 1.25198 4.56264 1.19124 4.53748C1.1305 4.51232 1.0654 4.49937 0.999655 4.49937C0.933911 4.49937 0.868811 4.51232 0.808072 4.53748C0.747332 4.56264 0.692143 4.59952 0.645655 4.64601C0.599167 4.69249 0.562291 4.74768 0.537132 4.80842C0.511973 4.86916 0.499023 4.93426 0.499023 5.00001C0.499023 5.06575 0.511973 5.13085 0.537132 5.19159C0.562291 5.25233 0.599167 5.30752 0.645655 5.35401L3.64566 8.35401C3.6921 8.40057 3.74728 8.43751 3.80802 8.46272C3.86877 8.48792 3.93389 8.5009 3.99966 8.5009C4.06542 8.5009 4.13054 8.48792 4.19129 8.46272C4.25203 8.43751 4.30721 8.40057 4.35366 8.35401L11.3537 1.35401Z" fill="#35655F"/>
    </svg>
</svg>
