<svg width="14" height="12" viewBox="0 0 14 12" fill="none" xmlns="http://www.w3.org/2000/svg">
<path d="M13.0007 0C13.1775 0 13.347 0.0702379 13.4721 0.195262C13.5971 0.320286 13.6673 0.489856 13.6673 0.666667V4.33333C13.2253 4.33333 12.8014 4.50893 12.4888 4.82149C12.1762 5.13405 12.0007 5.55797 12.0007 6C12.0007 6.44203 12.1762 6.86595 12.4888 7.17851C12.8014 7.49107 13.2253 7.66667 13.6673 7.66667V11.3333C13.6673 11.5101 13.5971 11.6797 13.4721 11.8047C13.347 11.9298 13.1775 12 13.0007 12H1.00065C0.82384 12 0.654271 11.9298 0.529246 11.8047C0.404222 11.6797 0.333984 11.5101 0.333984 11.3333V7.66667C0.776012 7.66667 1.19994 7.49107 1.5125 7.17851C1.82506 6.86595 2.00065 6.44203 2.00065 6C2.00065 5.55797 1.82506 5.13405 1.5125 4.82149C1.19994 4.50893 0.776012 4.33333 0.333984 4.33333V0.666667C0.333984 0.489856 0.404222 0.320286 0.529246 0.195262C0.654271 0.0702379 0.82384 0 1.00065 0H13.0007ZM12.334 1.33333H1.66732V3.312L1.77132 3.366C2.22353 3.6127 2.6046 3.97168 2.87783 4.40838C3.15106 4.84508 3.30723 5.34477 3.33132 5.85933L3.33398 6C3.33407 6.53883 3.189 7.06773 2.91402 7.53111C2.63904 7.99449 2.24431 8.37524 1.77132 8.63333L1.66732 8.688V10.6667H12.334V8.68733L12.23 8.634C11.7778 8.3873 11.3967 8.02832 11.1235 7.59162C10.8502 7.15493 10.6941 6.65523 10.67 6.14067L10.6673 6C10.6673 4.864 11.2987 3.87533 12.23 3.36667L12.334 3.31133V1.33333ZM9.66732 4V8H4.33398V4H9.66732Z" fill="#F8FFFE"/>
</svg>
